# xmcd CD database file
#
# Track frame offsets:
#	150
#	19267
#	35330
#	45000
#	57662
#	73807
#	92075
#	110760
#	129310
#	144285
#	166120
#	183827
#
# Disc length: 2696 seconds
#
# Revision: 0
# Processed by: cddbd v1.5.1PL0 Copyright (c) Steve Scherf et al.
# Submitted via: CDex 1.51
#
DISCID=9b0a860c
DTITLE=JULIA MAZDA - GATE J Vol.2 〜20th Century J's BEST〜
DYEAR=2005
DGENRE=Rock
TTITLE0=月下美人 -new take-
TTITLE1=BAD BLOOD
TTITLE2=don't wanna die !!
TTITLE3=ウィスキーレイン
TTITLE4=欠落
TTITLE5=show !!
TTITLE6=永遠という瞬間の中で -new take-
TTITLE7=僕のカケラ
TTITLE8=Bluesy Night
TTITLE9=SPIRIT
TTITLE10=パンドラ
TTITLE11=だまってないで -new take-
EXTD=YEAR: 2005
EXTT0=
EXTT1=
EXTT2=
EXTT3=
EXTT4=
EXTT5=
EXTT6=
EXTT7=
EXTT8=
EXTT9=
EXTT10=
EXTT11=
PLAYORDER=
